<svg width="140" height="39" viewBox="0 0 140 39" fill="none" xmlns="http://www.w3.org/2000/svg">
<g clip-path="url(#clip0_50_46)">
<path d="M83.1001 14.4769V6.6047H77.0208L77.0145 0.00012207L63.0247 6.6047V14.4769H69.1411V24.3462C69.1411 32.0007 75.3525 38.2058 83.0149 38.2058C83.0429 38.2058 83.0717 38.2056 83.1001 38.2056V30.3331C83.0717 30.3333 83.0433 30.3337 83.0149 30.3337C79.7044 30.3337 77.0214 27.6531 77.0214 24.3462V14.4769H83.1001Z" fill="white"/>
<path d="M139.792 16.8861H131.999C131.999 14.9262 129.804 13.9092 127.787 13.8838C124.689 13.8449 122.039 16.5469 125.532 18.306C130.528 20.8214 139.859 20.294 139.859 28.297C139.859 35.1372 133.255 38.7364 126.93 38.2797C121.414 37.8816 115.916 34.1091 115.916 28.04H124.159C124.159 29.9998 126.049 30.9229 127.921 31.0427C131.079 31.2442 133.614 28.3514 130.176 26.6201C125.18 24.1051 115.849 24.6324 115.849 16.6294C115.849 9.78907 122.453 6.18974 128.778 6.64651C134.294 7.04462 139.792 10.8171 139.792 16.8861Z" fill="white"/>
<path fill-rule="evenodd" clip-rule="evenodd" d="M85.8691 6.6051V24.4587C85.8691 32.1128 92.0805 38.3181 99.7422 38.3181C107.404 38.3181 113.615 32.1128 113.615 24.4587V6.6051H105.51V24.4587C105.51 27.641 102.928 30.221 99.7422 30.221C96.5565 30.221 93.974 27.641 93.974 24.4587V6.6051H85.8691Z" fill="white"/>
<path d="M46.3318 14.7596C44.2724 14.7596 42.3362 15.5608 40.8802 17.0156C39.424 18.4701 38.622 20.4044 38.622 22.4617C38.622 24.519 39.424 26.4531 40.8802 27.9079C42.3362 29.3625 44.2724 30.1637 46.3318 30.1637C48.3909 30.1637 50.3271 29.3625 51.7831 27.9079C53.2393 26.4531 54.0414 24.519 54.0414 22.4617C54.0414 20.4044 53.2393 18.4701 51.7831 17.0156C50.3271 15.5608 48.3909 14.7596 46.3318 14.7596ZM46.3318 38.3184C44.1907 38.3184 42.1116 37.8985 40.1522 37.0708C38.2616 36.2717 36.5646 35.129 35.108 33.6739C33.6518 32.2191 32.5076 30.5239 31.7081 28.635C30.8792 26.6775 30.4592 24.6006 30.4592 22.4617C30.4592 20.3228 30.8792 18.2458 31.7081 16.2882C32.5076 14.3994 33.6518 12.7041 35.108 11.249C36.5646 9.7942 38.2616 8.65156 40.1522 7.85251C42.1116 7.02446 44.1907 6.60486 46.3318 6.60486C48.4726 6.60486 50.5517 7.02446 52.5111 7.85251C54.4019 8.65156 56.0988 9.7942 57.555 11.249C59.0116 12.7041 60.1553 14.3994 60.9553 16.2882C61.7837 18.2458 62.2041 20.3228 62.2041 22.4617C62.2041 24.6006 61.7837 26.6775 60.9553 28.635C60.1553 30.5239 59.0116 32.2191 57.555 33.6739C56.0988 35.129 54.4019 36.2717 52.5111 37.0708C50.5517 37.8985 48.4726 38.3184 46.3318 38.3184Z" fill="white"/>
<path fill-rule="evenodd" clip-rule="evenodd" d="M0.0708008 25.1825V38.3213H9.25642V16.0059L0.0708008 25.1825ZM9.47824 15.7843H14.3835C16.7046 15.7843 18.5862 17.6641 18.5862 19.9829V38.3213H27.7718V19.9829C27.7718 13.8959 23.7016 8.75862 18.132 7.13904L9.47824 15.7843Z" fill="white"/>
<path d="M0.0712891 15.7846C0.0712891 10.7165 4.18386 6.60803 9.25694 6.60803V15.7846H0.0712891Z" fill="white"/>
</g>
<defs>
<clipPath id="clip0_50_46">
<rect width="140" height="38.51" fill="white"/>
</clipPath>
</defs>
</svg>
